<svg xmlns="http://www.w3.org/2000/svg" xmlns:xlink="http://www.w3.org/1999/xlink" width="500" zoomAndPan="magnify" viewBox="0 0 375 374.999991" height="500" preserveAspectRatio="xMidYMid meet" version="1.0"><path fill="#7e92bc" d="M 314.933594 195.269531 C 337.625 201.933594 333.734375 218.40625 333.667969 229.445312 L 277.054688 229.445312 C 275.019531 222.765625 269.992188 216.523438 257.980469 213.015625 L 254.183594 211.878906 C 238.292969 207.257812 229.785156 204.757812 227.558594 199.75 C 227.019531 197.945312 227.183594 195.945312 232.480469 194.019531 C 249.507812 189.0625 258.136719 186.46875 260.171875 180.09375 L 261.246094 180.09375 C 260.957031 179.835938 260.675781 179.582031 260.410156 179.277344 C 251.996094 171.164062 245.570312 155.332031 245.570312 142.546875 C 245.570312 124.472656 259.40625 112.59375 272.5 112.59375 C 285.589844 112.59375 298.761719 125.425781 298.761719 143.527344 C 298.761719 156.308594 291.609375 171.644531 282.828125 179.488281 C 284.636719 186.867188 294.507812 189.28125 314.933594 195.269531 Z M 314.933594 195.269531 " fill-opacity="1" fill-rule="nonzero"/><path fill="#7e92bc" d="M 275.839844 270.980469 L 99.96875 270.980469 C 99.859375 269.222656 99.75 267.460938 99.535156 265.382812 C 98.996094 258.433594 98.453125 251.285156 100.398438 244.746094 C 102.773438 237.078125 108.933594 230.335938 123.1875 226.183594 L 128.699219 224.425781 C 153.757812 217.269531 167.15625 213.226562 171.585938 203.789062 L 172.992188 201.410156 L 172.886719 198.402344 C 172.5625 198.195312 172.351562 197.992188 171.914062 197.46875 C 170.398438 195.914062 168.890625 194.355469 167.480469 192.5 C 157.761719 180.148438 150.847656 161.074219 150.847656 145.320312 C 150.847656 125.195312 165.757812 103.839844 188.007812 103.839844 C 205.402344 103.839844 224.09375 121.054688 224.09375 146.769531 C 224.09375 163.15625 215.558594 183.46875 203.894531 195.398438 C 203.132812 196.234375 202.273438 196.949219 201.519531 197.679688 L 200.113281 198.929688 L 200.546875 200.800781 C 203.570312 212.613281 217.179688 216.65625 244.507812 224.433594 L 250.128906 226.195312 C 264.28125 230.347656 270.976562 237.195312 273.894531 244.757812 L 274 244.757812 C 276.707031 252.117188 276.378906 260.109375 276.054688 267.570312 C 275.945312 268.699219 275.945312 269.941406 275.839844 270.980469 Z M 275.839844 270.980469 " fill-opacity="1" fill-rule="nonzero"/><path fill="#7e92bc" d="M 60.40625 195.269531 C 37.695312 201.933594 41.613281 218.40625 41.671875 229.445312 L 98.265625 229.445312 C 100.316406 222.765625 105.324219 216.523438 117.359375 213.015625 L 121.140625 211.878906 C 137.046875 207.257812 145.558594 204.757812 147.769531 199.75 C 147.164062 197.761719 148.261719 194.78125 142.839844 194.019531 C 125.820312 189.0625 117.195312 186.46875 115.160156 180.09375 L 114.097656 180.09375 C 114.382812 179.835938 114.671875 179.582031 114.929688 179.277344 C 123.34375 171.164062 129.773438 155.332031 129.773438 142.546875 C 129.773438 124.472656 115.941406 112.59375 102.84375 112.59375 C 89.738281 112.59375 76.582031 125.425781 76.582031 143.527344 C 76.582031 156.308594 83.703125 171.644531 92.488281 179.488281 C 90.6875 186.867188 80.800781 189.28125 60.40625 195.269531 Z M 60.40625 195.269531 " fill-opacity="1" fill-rule="nonzero"/></svg>